IKResults
version=1
nRows=17
nColumns=40
inDegrees=yes

Units are S.I. units (second, meters, Newtons, ...)
Angles are in degrees.

endheader
time	pelvis_tilt	pelvis_list	pelvis_rotation	pelvis_tx	pelvis_ty	pelvis_tz	hip_flexion_r	hip_adduction_r	hip_rotation_r	knee_angle_r	knee_angle_r_beta	ankle_angle_r	subtalar_angle_r	mtp_angle_r	hip_flexion_l	hip_adduction_l	hip_rotation_l	knee_angle_l	knee_angle_l_beta	ankle_angle_l	subtalar_angle_l	mtp_angle_l	lumbar_extension	lumbar_bending	lumbar_rotation	arm_flex_r	arm_add_r	arm_rot_r	elbow_flex_r	pro_sup_r	wrist_flex_r	wrist_dev_r	arm_flex_l	arm_add_l	arm_rot_l	elbow_flex_l	pro_sup_l	wrist_flex_l	wrist_dev_l
      0.79000000	      3.50341771	     -8.30303467	     -2.85667823	      1.27871182	      0.94261530	      0.20245026	     21.49932933	     12.76392711	    -16.04955881	    -28.10189895	     -0.49047066	    -15.58145330	      0.96860972	      6.86303524	    -16.03983383	      5.03555542	      4.43924776	    -63.02340569	     -1.09996594	     -8.77346911	     17.49563270	      6.70292572	    -15.54659520	      9.86174476	     -6.90928713	    -36.64306376	    -27.81775425	     -3.48783684	    132.54616940	     89.95437384	      0.00000000	      0.00000000	    -16.30772595	     23.01396018	     -5.90886170	    141.43413952	     89.95437384	      0.00000000	      0.00000000
      0.80000000	      4.40397005	     -8.74502479	     -2.81039718	      1.31887971	      0.93603006	      0.20140048	     18.90301620	     13.86627096	    -12.89913758	    -30.52936814	     -0.53283799	     -8.23570274	      1.09540022	      5.62245811	    -14.51201929	      6.13442050	      4.63892784	    -66.69402343	     -1.16403030	     -7.08949612	     17.77416326	      6.32942233	    -16.43021361	     10.57717805	     -5.77560170	    -34.96478292	    -27.79731882	     -2.82920235	    131.83956726	     89.95437384	      0.00000000	      0.00000000	    -17.38475570	     22.56363152	     -5.37552945	    140.41147703	     89.95437384	      0.00000000	      0.00000000
      0.81000000	      4.84265162	     -8.69591945	     -3.35142570	      1.35792051	      0.92800524	      0.20084781	     17.23412313	     14.34112822	    -10.36376121	    -34.42417823	     -0.60081525	     -1.74763920	      1.80390644	      4.61519535	    -12.21387225	      6.61607427	      5.02601572	    -70.44123377	     -1.22943146	     -5.12053021	     17.85778314	      5.86358597	    -16.94318188	     10.64690960	     -4.09381337	    -33.17189042	    -27.73675741	     -2.18867920	    131.07280035	     89.95437384	      0.00000000	      0.00000000	    -18.47234846	     22.13150041	     -4.75441889	    139.35260250	     89.95437384	      0.00000000	      0.00000000
      0.82000000	      5.15560117	     -8.47005374	     -3.62645636	      1.39593537	      0.91968755	      0.20024925	     15.84870709	     14.82737947	     -7.19355635	    -37.87456917	     -0.66103593	      3.29950717	      0.86132048	      3.38460755	     -9.34861097	      6.99118818	      4.85691578	    -74.24113232	     -1.29575220	     -2.91071160	     18.03696357	      5.57631559	    -17.39879046	     10.52961365	     -2.58527482	    -31.13018430	    -27.44930015	     -1.42965010	    130.10558930	     89.95437384	      0.00000000	      0.00000000	    -19.58235154	     21.91836102	     -4.21635759	    138.33300757	     89.95437384	      0.00000000	      0.00000000
      0.83000000	      6.01154803	     -8.33730153	     -3.67459891	      1.43412199	      0.91245579	      0.19975186	     13.25766951	     15.35181170	     -4.96054002	    -40.09186155	     -0.69973499	      7.66785126	     -0.14721484	      2.34493931	     -6.94995733	      7.45794308	      4.41347459	    -77.65955611	     -1.35541495	     -0.61576579	     18.27271701	      5.34913915	    -18.43003464	     10.42593799	     -0.91881896	    -29.07495151	    -27.12758157	     -0.91011959	    129.11816930	     89.95437384	      0.00000000	      0.00000000	    -20.54270431	     21.91563966	     -3.78871914	    137.32748778	     89.95437384	      0.00000000	      0.00000000
      0.84000000	      6.66257604	     -7.94273754	     -3.78763292	      1.47170274	      0.90592886	      0.19968873	     10.61213124	     15.57990300	     -3.16038392	    -42.04730034	     -0.73386383	     11.27846996	     -1.50278650	      1.44236485	     -4.00728546	      7.58883647	      3.71489697	    -80.84854179	     -1.41107325	      1.38565932	     18.46829452	      5.23599863	    -19.31042164	      9.99395949	      0.86390981	    -26.93607553	    -26.46285968	      0.00715234	    128.01579441	     89.95437384	      0.00000000	      0.00000000	    -21.61861750	     22.09533831	     -3.36672149	    136.34150241	     89.95437384	      0.00000000	      0.00000000
      0.85000000	      6.88864140	     -7.37848345	     -3.85258630	      1.50900346	      0.90084691	      0.19951125	      7.71646432	     15.27827339	     -2.22035996	    -42.79223896	     -0.74686546	     14.32682491	     -2.45443408	      0.60497797	     -0.31303569	      7.47899404	      2.80473873	    -83.63997247	     -1.45979291	      2.99560059	     18.61795138	      5.31000822	    -19.65422194	      9.38064875	      2.49450998	    -24.58475073	    -25.76024664	      0.82035702	    126.95126591	     89.95437384	      0.00000000	      0.00000000	    -22.78416790	     22.02254262	     -2.74620204	    135.21487819	     89.95437384	      0.00000000	      0.00000000
      0.86000000	      6.15731087	     -6.69189668	     -3.73138230	      1.54559702	      0.89685336	      0.19877903	      5.72110103	     14.58577749	     -1.86353524	    -42.69675074	     -0.74519888	     14.97825995	     -4.06552602	     -9.83611603	      4.84225814	      6.93714553	      1.36780554	    -86.20451075	     -1.50455254	      4.83295173	     18.59186226	     14.24420788	    -18.93046087	      8.81585623	      3.86664283	    -22.45707635	    -24.97523562	      1.74183462	    126.08927877	     89.95437384	      0.00000000	      0.00000000	    -24.14587475	     22.01337599	     -2.12104971	    134.15528911	     89.95437384	      0.00000000	      0.00000000
      0.87000000	      5.95718506	     -5.90051737	     -3.19928112	      1.58346850	      0.89540927	      0.19743461	      2.57344482	     13.60237981	     -1.75300120	    -41.66972520	     -0.72727390	     16.42487997	     -3.99836822	     -9.93079349	      9.19202009	      6.02719669	     -0.29479411	    -87.63417298	     -1.52950486	      5.76877422	     18.75134268	     14.00360518	    -18.55025419	      8.20331175	      5.04792872	    -20.70295511	    -24.32690564	      2.38203048	    126.16592860	     89.95437384	      0.00000000	      0.00000000	    -25.37779195	     22.19247485	     -1.68853103	    133.39206449	     89.95437384	      0.00000000	      0.00000000
      0.88000000	      5.56720536	     -4.84815045	     -2.81433487	      1.62154406	      0.89522537	      0.19604776	     -0.43362355	     12.27148690	     -1.40446327	    -40.31633155	     -0.70365273	     16.43967675	     -3.61739900	     -9.81499047	     13.64517116	      4.74719639	     -1.44800588	    -88.37235848	     -1.54238862	      6.46929380	     18.89276066	     13.74176900	    -17.88635579	      7.32948750	      6.42178267	    -19.36901957	    -23.77203609	      2.84511335	    127.11175990	     89.95437384	      0.00000000	      0.00000000	    -26.44638413	     22.68546246	     -1.51506732	    132.88773222	     89.95437384	      0.00000000	      0.00000000
      0.89000000	      4.72382320	     -3.68073073	     -1.59487928	      1.65968384	      0.89574664	      0.19362088	     -2.86512460	     10.72576787	     -2.24448667	    -38.76562008	     -0.67658771	     16.20114570	     -2.92167242	    -10.04510747	     18.62524873	      2.70867430	     -3.38639143	    -88.58071264	     -1.54602509	      7.15240535	     18.97202626	     14.23054484	    -16.60581609	      6.50412926	      6.64756634	    -17.87445731	    -23.37527863	      3.68568678	    128.39203247	     89.95437384	      0.00000000	      0.00000000	    -27.81873423	     23.17445268	     -0.93544797	    132.84073818	     89.95437384	      0.00000000	      0.00000000
      0.90000000	      3.79921707	     -2.52222794	     -1.25499214	      1.69826610	      0.89804628	      0.19281659	     -5.26170119	      9.31023014	     -1.86588744	    -37.03706368	     -0.64641871	     14.32004546	     -2.16572420	     -9.82521642	     23.11902677	      1.06821441	     -3.89347551	    -87.76935032	     -1.53186415	      7.33165645	     19.03042584	     14.24478551	    -15.32614370	      5.36640308	      7.87942966	    -16.82835138	    -22.99531910	      4.21318195	    130.09809392	     89.95437384	      0.00000000	      0.00000000	    -28.98873134	     23.85036443	     -0.60986794	    132.88249560	     89.95437384	      0.00000000	      0.00000000
      0.91000000	      3.32286023	     -1.20913761	     -0.40377941	      1.73811196	      0.90249578	      0.19124003	     -8.14635428	      7.62665806	     -2.52076989	    -34.98625973	     -0.61062543	     10.81424947	     -1.58249105	     -9.79502747	     26.60200913	     -1.01335097	     -4.35247448	    -85.97244956	     -1.50050231	      7.31672349	     19.05193218	     15.32264604	    -14.41745219	      4.09576612	      8.23198754	    -15.64413448	    -22.81205433	      5.21185363	    131.78592060	     89.95437384	      0.00000000	      0.00000000	    -30.52546875	     24.39728375	      0.17503823	    133.20999964	     89.95437384	      0.00000000	      0.00000000
      0.92000000	      2.20713353	     -0.07054739	     -0.10616576	      1.77827072	      0.90730207	      0.19049379	    -10.09982123	      6.28706108	     -2.07007891	    -33.23483704	     -0.58005733	      7.07456633	     -0.81075698	     -9.26258789	     30.32709662	     -2.55805769	     -3.98519588	    -83.49108678	     -1.45719436	      7.05920370	     18.97635831	     15.27575632	    -12.81512933	      2.88896402	      9.30456793	    -14.97262158	    -22.57744419	      5.90027507	    133.52602461	     89.95437384	      0.00000000	      0.00000000	    -31.88371560	     25.05070905	      0.49912510	    133.28909800	     89.95437384	      0.00000000	      0.00000000
      0.93000000	      3.13424894	      1.83761086	      0.28683740	      1.82057721	      0.91655233	      0.18896744	    -14.45477993	      3.92460548	     -2.75086364	    -30.77135226	     -0.53706141	      0.00625834	     -0.56699636	     -8.52462621	     30.69211520	     -5.14250992	     -3.26086044	    -79.43815474	     -1.38645735	      6.49031590	     18.95296074	     18.19272312	    -13.37777844	      0.85315616	      9.71266034	    -13.94226242	    -22.49792126	      7.04134391	    135.07049811	     89.95437384	      0.00000000	      0.00000000	    -33.28636079	     25.50051362	      1.25115348	    133.58690632	     89.95437384	      0.00000000	      0.00000000
      0.94000000	      2.92459913	      3.39739156	      0.75016170	      1.86255965	      0.92465296	      0.18764602	    -16.97529400	      2.03982492	     -3.58368422	    -28.90346421	     -0.50446062	     -7.84146793	     -0.77472063	     -6.91498462	     32.11649233	     -7.37159757	     -2.75748183	    -75.13506615	     -1.31135429	      4.80437888	     18.89202056	     18.66342445	    -12.69311240	     -0.80676674	     10.10506497	    -13.25486182	    -22.38826870	      8.14270733	    136.43861325	     89.95437384	      0.00000000	      0.00000000	    -34.65247060	     25.98721784	      1.82690223	    133.73926561	     89.95437384	      0.00000000	      0.00000000
      0.95000000	      2.98635604	      4.97626767	      0.89924758	      1.90524131	      0.93339345	      0.18659592	    -19.64748262	      0.12362891	     -4.13424515	    -26.69187686	     -0.46586113	    -17.36476016	     -1.37612915	     -4.51210460	     32.72581608	     -9.39979802	     -1.86091176	    -70.19513841	     -1.22513628	      2.52246360	     18.77513234	     18.97850340	    -12.27580265	     -2.53107036	     10.68272896	    -12.73478593	    -22.40179561	      9.27061804	    137.69486398	     89.95437384	      0.00000000	      0.00000000	    -35.94217551	     26.38893923	      2.40009287	    133.95836716	     89.95437384	      0.00000000	      0.00000000
